<svg width="150" height="150" viewBox="0 0 150 150" fill="none" xmlns="http://www.w3.org/2000/svg">
<rect width="150" height="150" rx="20" fill="#BB00FF"/>
<mask id="mask0_202_27" style="mask-type:alpha" maskUnits="userSpaceOnUse" x="0" y="0" width="150" height="150">
<rect width="150" height="150" rx="20" fill="#009B19"/>
</mask>
<g mask="url(#mask0_202_27)">
<path d="M33 119.999L48.2924 27.9985H88.2325C95.249 27.9985 100.991 28.9419 105.459 30.8286C108.52 32.1128 110.97 33.7577 112.809 35.7633C113.161 36.086 113.494 36.4193 113.809 36.7632C114.161 37.086 114.494 37.4193 114.809 37.7633C115.161 38.086 115.494 38.4194 115.809 38.7633C116.161 39.086 116.494 39.4194 116.809 39.7633C117.161 40.086 117.494 40.4193 117.809 40.7633C118.161 41.086 118.494 41.4193 118.809 41.7633C119.161 42.086 119.494 42.4193 119.809 42.7633C120.161 43.086 120.494 43.4193 120.809 43.7632C121.161 44.086 121.494 44.4193 121.809 44.7633C122.161 45.086 122.494 45.4193 122.809 45.7633C123.161 46.086 123.494 46.4193 123.809 46.7633C124.161 47.086 124.494 47.4193 124.809 47.7633C125.161 48.086 125.494 48.4193 125.809 48.7632C126.161 49.086 126.494 49.4193 126.809 49.7633C127.161 50.086 127.494 50.4193 127.809 50.7633C128.161 51.086 128.494 51.4193 128.809 51.7633C129.161 52.086 129.494 52.4193 129.809 52.7633C130.161 53.086 130.494 53.4193 130.809 53.7633C131.161 54.086 131.494 54.4193 131.809 54.7632C132.161 55.086 132.494 55.4193 132.809 55.7633C133.161 56.086 133.494 56.4193 133.809 56.7633C134.161 57.086 134.494 57.4193 134.809 57.7633C135.161 58.086 135.494 58.4193 135.809 58.7633C136.161 59.086 136.494 59.4193 136.809 59.7632C137.161 60.086 137.494 60.4193 137.809 60.7633C138.161 61.086 138.494 61.4194 138.809 61.7633C139.161 62.086 139.494 62.4193 139.809 62.7633C140.161 63.086 140.494 63.4193 140.809 63.7633C141.161 64.086 141.494 64.4193 141.809 64.7632C142.161 65.086 142.494 65.4193 142.809 65.7633C143.161 66.086 143.494 66.4193 143.809 66.7633C144.161 67.086 144.494 67.4193 144.809 67.7632C145.161 68.086 145.494 68.4193 145.809 68.7632C146.161 69.086 146.494 69.4193 146.809 69.7633C147.161 70.086 147.494 70.4193 147.809 70.7632C148.161 71.086 148.494 71.4193 148.809 71.7633C149.161 72.086 149.494 72.4193 149.809 72.7633C150.161 73.086 150.494 73.4193 150.809 73.7632C151.161 74.086 151.494 74.4193 151.809 74.7632C152.161 75.086 152.494 75.4193 152.809 75.7633C153.161 76.086 153.494 76.4193 153.809 76.7632C154.161 77.086 154.494 77.4193 154.809 77.7633C155.161 78.086 155.494 78.4193 155.809 78.7633C156.161 79.086 156.494 79.4193 156.809 79.7632C157.161 80.086 157.494 80.4193 157.809 80.7632C158.161 81.086 158.494 81.4193 158.809 81.7633C159.161 82.086 159.494 82.4193 159.809 82.7632C160.161 83.086 160.494 83.4193 160.809 83.7633C161.161 84.086 161.494 84.4193 161.809 84.7633C162.161 85.086 162.494 85.4193 162.809 85.7633C163.161 86.086 163.494 86.4194 163.809 86.7633C164.161 87.086 164.494 87.4194 164.809 87.7634C165.161 88.0861 165.494 88.4194 165.809 88.7633C166.161 89.086 166.494 89.4193 166.809 89.7632C167.161 90.086 167.494 90.4193 167.809 90.7633C168.161 91.086 168.494 91.4194 168.809 91.7633C169.161 92.086 169.494 92.4194 169.809 92.7633C170.161 93.086 170.494 93.4194 170.809 93.7633C171.161 94.086 171.494 94.4193 171.809 94.7632C172.161 95.086 172.494 95.4193 172.809 95.7633C173.161 96.086 173.494 96.4194 173.809 96.7633C174.161 97.086 174.494 97.4193 174.809 97.7633C175.161 98.086 175.494 98.4194 175.809 98.7633C176.161 99.086 176.494 99.4193 176.809 99.7633C177.161 100.086 177.494 100.419 177.809 100.763C178.161 101.086 178.494 101.419 178.809 101.763C179.161 102.086 179.494 102.419 179.809 102.763C180.161 103.086 180.494 103.419 180.809 103.763C181.161 104.086 181.494 104.419 181.809 104.763C182.161 105.086 182.494 105.419 182.809 105.763C183.161 106.086 183.494 106.419 183.809 106.763C184.161 107.086 184.494 107.419 184.809 107.763C185.161 108.086 185.494 108.419 185.809 108.763C186.161 109.086 186.494 109.419 186.809 109.763C187.161 110.086 187.494 110.419 187.809 110.763C188.161 111.086 188.494 111.419 188.809 111.763C189.161 112.086 189.494 112.419 189.809 112.763C191.122 113.969 192.184 115.323 192.994 116.825C194.883 120.269 195.438 124.327 194.658 128.999C194.059 132.353 192.769 135.422 190.79 138.208C188.841 140.963 186.368 143.299 183.369 145.215C181.921 146.135 180.391 146.917 178.78 147.559C178.864 147.648 178.948 147.737 179.031 147.827C179.38 148.146 179.713 148.48 180.031 148.827C180.38 149.146 180.713 149.48 181.031 149.827C181.38 150.146 181.713 150.48 182.031 150.827C182.38 151.146 182.713 151.48 183.031 151.827C183.38 152.146 183.713 152.48 184.031 152.827C184.38 153.146 184.713 153.48 185.031 153.827C185.38 154.146 185.713 154.48 186.031 154.827C187.759 156.408 189.106 158.34 190.071 160.624C191.45 163.858 191.78 167.631 191.06 171.944C190.221 176.975 188.167 181.452 184.898 185.375C181.63 189.299 177.387 192.383 172.17 194.629C166.952 196.875 161.015 197.999 154.358 197.999H111L111.166 196.999H110L110.166 195.999H109L109.166 194.999H108L108.166 193.999H107L107.166 192.999H106L106.166 191.999H105L105.166 190.999H104L104.166 189.999H103L103.166 188.999H102L102.166 187.999H101L101.166 186.999H100L100.166 185.999H99L99.1662 184.999H98L98.1662 183.999H97L97.1662 182.999H96L96.1662 181.999H95L95.1662 180.999H94L94.1662 179.999H93L93.1662 178.999H92L92.1662 177.999H91L91.1662 176.999H90L90.1662 175.999H89L89.1662 174.999H88L88.1662 173.999H87L87.1662 172.999H86L86.1662 171.999H85L85.1662 170.999H84L84.1662 169.999H83L83.1662 168.999H82L82.1662 167.999H81L81.1662 166.999H80L80.1662 165.999H79L79.1662 164.999H78L78.1662 163.999H77L77.1662 162.999H76L76.1662 161.999H75L75.1662 160.999H74L74.1662 159.999H73L73.1662 158.999H72L72.1662 157.999H71L71.1662 156.999H70L70.1662 155.999H69L69.1662 154.999H68L68.1662 153.999H67L67.1662 152.999H66L66.1662 151.999H65L65.1662 150.999H64L64.1662 149.999H63L63.1662 148.999H62L62.1662 147.999H61L61.1662 146.999H60L60.1662 145.999H59L59.1662 144.999H58L58.1662 143.999H57L57.1662 142.999H56L56.1662 141.999H55L55.1662 140.999H54L54.1662 139.999H53L53.1662 138.999H52L52.1662 137.999H51L51.1662 136.999H50L50.1662 135.999H49L49.1662 134.999H48L48.1662 133.999H47L47.1662 132.999H46L46.1662 131.999H45L45.1662 130.999H44L44.1662 129.999H43L43.1662 128.999H42L42.1662 127.999H41L41.1662 126.999H40L40.1662 125.999H39L39.1662 124.999H38L38.1662 123.999H37L37.1662 122.999H36L36.1662 121.999H35L35.1662 120.999H34L34.1662 119.999H33Z" fill="url(#paint0_linear_202_27)"/>
</g>
<g filter="url(#filter0_d_202_27)">
<path d="M33 120.555L48.2924 28.5552H88.2325C95.249 28.5552 100.991 29.4985 105.459 31.3853C109.957 33.272 113.135 35.9373 114.994 39.3813C116.883 42.8254 117.438 46.8833 116.658 51.5552C116.059 54.9093 114.769 57.979 112.79 60.7642C110.841 63.5194 108.367 65.8553 105.369 67.772C102.4 69.6587 99.0871 70.9614 95.4289 71.6802L95.249 72.5786C99.2071 72.6984 102.655 73.6867 105.594 75.5435C108.532 77.3703 110.691 79.9159 112.071 83.1802C113.45 86.4146 113.78 90.188 113.06 94.5005C112.221 99.5317 110.167 104.009 106.898 107.932C103.63 111.855 99.387 114.94 94.1696 117.186C88.9522 119.432 83.0151 120.555 76.3584 120.555H33ZM61.4259 100.61H73.12C77.258 100.61 80.5114 99.8162 82.8802 98.229C85.279 96.6418 86.7033 94.3208 87.153 91.2661C87.5129 89.1099 87.333 87.283 86.6133 85.7856C85.8937 84.2883 84.6793 83.1502 82.9701 82.3716C81.261 81.5929 79.117 81.2036 76.5383 81.2036H64.4843L61.4259 100.61ZM67.183 65.7505H77.4379C79.5968 65.7505 81.5758 65.4061 83.3749 64.7173C85.174 64.0285 86.6583 63.0252 87.8277 61.7075C88.9971 60.3898 89.7318 58.8026 90.0316 56.9458C90.4814 54.0708 89.7917 51.8846 87.9626 50.3872C86.1635 48.8898 83.7347 48.1411 80.6763 48.1411H70.0616L67.183 65.7505Z" fill="url(#paint1_linear_202_27)"/>
<path d="M105.07 32.3065L105.072 32.3074C109.412 34.1281 112.388 36.6588 114.114 39.8564L114.117 39.8623C115.877 43.0701 116.422 46.89 115.673 51.3853C115.099 54.5914 113.868 57.5214 111.975 60.1849L111.974 60.1867C110.104 62.8306 107.726 65.0782 104.831 66.9291C101.974 68.7446 98.7789 70.0029 95.2361 70.6989L94.5797 70.8279L94.4484 71.4838L94.2685 72.3823L94.0362 73.5424L95.2188 73.5782C99.0234 73.6933 102.292 74.6403 105.06 76.3889L105.066 76.3927C107.825 78.1077 109.849 80.4904 111.149 83.5694L111.151 83.5724C112.439 86.5931 112.77 90.1658 112.074 94.3359C111.263 99.1919 109.285 103.505 106.13 107.292C102.973 111.081 98.8635 114.077 93.7741 116.268C88.7012 118.451 82.9022 119.555 76.3584 119.555H34.1799L49.1399 29.5552H88.2325C95.1702 29.5552 100.767 30.4895 105.07 32.3065ZM60.438 100.454L60.2559 101.61H61.4259H73.12C77.3701 101.61 80.8429 100.797 83.4349 99.061C86.0853 97.3062 87.6518 94.7281 88.141 91.4213C88.5221 89.1292 88.3468 87.0839 87.5146 85.3525C86.6804 83.6166 85.2774 82.3238 83.3847 81.4616C81.5064 80.6059 79.2099 80.2036 76.5383 80.2036H64.4843H63.6296L63.4965 81.0479L60.438 100.454ZM66.1961 65.5892L66.0062 66.7505H67.183H77.4379C79.7044 66.7505 81.8063 66.3886 83.7325 65.6512C85.6672 64.9104 87.29 63.82 88.5757 62.3713C89.8797 60.9019 90.6908 59.1362 91.0188 57.1052L91.0196 57.1004C91.5092 53.9709 90.7671 51.3926 88.5992 49.616C86.5719 47.9302 83.8942 47.1411 80.6763 47.1411H70.0616H69.2118L69.0747 47.9798L66.1961 65.5892Z" stroke="white" stroke-width="2"/>
</g>
<defs>
<filter id="filter0_d_202_27" x="33" y="28.5552" width="86" height="94" filterUnits="userSpaceOnUse" color-interpolation-filters="sRGB">
<feFlood flood-opacity="0" result="BackgroundImageFix"/>
<feColorMatrix in="SourceAlpha" type="matrix" values="0 0 0 0 0 0 0 0 0 0 0 0 0 0 0 0 0 0 127 0" result="hardAlpha"/>
<feOffset dx="2" dy="2"/>
<feComposite in2="hardAlpha" operator="out"/>
<feColorMatrix type="matrix" values="0 0 0 0 0.446113 0 0 0 0 0 0 0 0 0 0.608333 0 0 0 1 0"/>
<feBlend mode="normal" in2="BackgroundImageFix" result="effect1_dropShadow_202_27"/>
<feBlend mode="normal" in="SourceGraphic" in2="effect1_dropShadow_202_27" result="shape"/>
</filter>
<linearGradient id="paint0_linear_202_27" x1="33" y1="27.9985" x2="155.001" y2="150" gradientUnits="userSpaceOnUse">
<stop stop-color="#5B007B"/>
<stop offset="1" stop-color="#9C25C7" stop-opacity="0"/>
</linearGradient>
<linearGradient id="paint1_linear_202_27" x1="54" y1="49.5552" x2="117" y2="120.555" gradientUnits="userSpaceOnUse">
<stop stop-color="white"/>
<stop offset="1" stop-color="#F9EAFF"/>
</linearGradient>
</defs>
</svg>
